<svg xmlns="http://www.w3.org/2000/svg" viewBox="0 0 595.28 841.89"><defs><style>.cls-1{fill:#5b5b5b;}.cls-2{fill:#8c8c8c;}.cls-3{fill:#5e5e5e;}.cls-4{fill:#545454;}.cls-5{fill:#666;}.cls-6{fill:#646666;}.cls-7{fill:#7f7f7f;}.cls-8{fill:#3f3f3f;}.cls-9{fill:#262626;}.cls-10{fill:#9ce29a;}.cls-11{fill:#e5c1e2;}.cls-12{fill:#c0f2f2;}.cls-13{fill:#c4c4c4;}.cls-14{fill:#aee5e3;}.cls-15{fill:#bbbae2;}.cls-16{fill:#a5d3a3;}.cls-17{fill:#f4b3b3;}.cls-18{fill:#f2efc0;}.cls-19{fill:#e2ede2;}.cls-20{fill:#d1f2ce;}.cls-21{fill:#d4f4f2;}.cls-22{fill:#ddd8a6;}.cls-23{fill:#f2d7f1;}.cls-24{fill:none;stroke:#fff;stroke-width:2px;}</style></defs><polygon class="cls-1" points="293.89 635.67 282.56 641.67 282.56 588.67 293.89 588.67 293.89 635.67"/><polygon class="cls-2" points="282.89 641.33 274.95 635 274.89 594.33 282.89 594.33 282.89 641.33"/><polygon class="cls-3" points="274.95 635 250.95 645.67 250.66 588.67 274.89 588.33 274.95 635"/><polygon class="cls-4" points="250.95 645.67 246.62 658.33 246.89 601.34 250.89 600.33 250.95 645.67"/><polygon class="cls-2" points="246.62 658.33 158.95 644.33 158.89 614 247.02 613 246.62 658.33"/><polygon class="cls-5" points="192.56 449 174.28 426.67 174.22 396.34 192.22 395.33 192.56 449"/><polygon class="cls-1" points="147.92 380.83 127.38 396.98 126.89 366 147.22 365.33 147.92 380.83"/><polygon class="cls-2" points="127.59 397.17 118.56 375.67 118.55 361.8 127.56 380.67 127.59 397.17"/><polygon class="cls-3" points="158.95 644.67 134.12 651.57 134.56 600.34 158.89 599.34 158.95 644.67"/><polygon class="cls-6" points="134.28 663.33 105.62 676.33 105.56 637 134.22 618 134.28 663.33"/><polygon class="cls-2" points="105.62 676.33 95.22 658.33 94.93 642.67 105.75 646 105.62 676.33"/><polygon class="cls-5" points="126.22 620.67 103.56 616.33 103.26 600.67 127.56 600.67 126.22 620.67"/><polygon class="cls-7" points="125.22 551.33 123.89 542.67 123.56 528.67 132.89 529 125.22 551.33"/><polygon class="cls-3" points="336.56 597 291.23 615 291.23 562 336.56 562 336.56 597"/><polygon class="cls-5" points="180.95 387.67 151.87 374.38 150.93 321.67 197.22 321.67 180.95 387.67"/><polygon class="cls-5" points="151.89 374.67 148.89 359.67 148.89 306.67 151.56 306 151.89 374.67"/><polygon class="cls-1" points="152.56 344.33 131.56 343.67 131.56 303 152.56 309.33 152.56 344.33"/><polygon class="cls-1" points="199.89 280 184.56 268 184.56 252.67 205.56 233.67 199.89 280"/><polygon class="cls-5" points="193.56 243.33 167.89 239 167.89 223.67 201.22 204.67 193.56 243.33"/><polygon class="cls-2" points="167.89 239 142.56 198 142.56 182.67 167.89 171.67 167.89 239"/><polygon class="cls-2" points="352.95 605 336.23 597.14 336.23 544.67 353.23 544.67 352.95 605"/><polygon class="cls-4" points="358.23 588.67 352.95 605 353.04 551.34 358.23 551.34 358.23 588.67"/><polygon class="cls-3" points="384.28 584.33 358.23 588.67 358.23 535.67 384.23 535.67 384.28 584.33"/><polygon class="cls-2" points="395.62 598.08 384.23 584.33 384.23 531.33 395.89 531.33 395.62 598.08"/><polygon class="cls-7" points="417.62 603 395.56 598 395.56 545 417.52 545 417.62 603"/><polygon class="cls-8" points="436.62 567 417.56 603 417.56 550 436.64 550 436.62 567"/><polygon class="cls-4" points="486.95 537.67 436.56 567 436.56 514 487.23 501.67 486.95 537.67"/><polygon class="cls-8" points="503.62 513 486.92 537.7 486.85 485 503.89 485.67 503.62 513"/><polygon class="cls-9" points="525.02 439.38 503.62 513 503.56 460.33 524.68 422.38 525.02 439.38"/><polygon class="cls-7" points="221.48 730.51 148.39 748.58 148.39 712.58 221.31 712.58 221.48 730.51"/><polygon class="cls-2" points="148.48 748.51 123.82 720.09 123.8 705.1 148.31 730.58 148.48 748.51"/><polygon class="cls-1" points="233.33 701.42 221.57 730.34 221.55 715.35 233.31 686.42 233.33 701.42"/><path class="cls-10" d="M123.8,705.09c.36-1.07,63.19-33,63.19-33l46.32,14.36-11.85,29.09-73.25,18.31Z"/><polygon class="cls-11" points="479.6 450.33 438.93 469 372.6 462 352.26 436.33 333.61 429.79 325.26 432 300.26 467 309.6 488.33 296.5 502.3 305.51 528.17 324.1 558.15 330.21 584.92 313.2 591.27 313.2 591.27 336.26 582.67 352.93 590 358.26 573.33 384.26 569.33 395.59 583.33 417.59 588 436.93 551.33 486.93 522.67 503.6 498 515.22 458.04 479.6 450.33"/><polygon class="cls-12" points="130.29 332.81 118.55 361.8 127.36 381.98 147.9 365.84 130.29 332.81"/><path class="cls-13" d="M260.58,277.27l57.22-36.58,60.5-2.82,39.87,31.9s-8,47.84-9.85,47.84-54.87,24.85-54.87,24.85l1.87,40.34-4.37,34L322,423.14l-35.17-.47-38.93-89.59Z"/><polygon class="cls-14" points="301.36 416.76 301.32 404.07 295.32 381.88 292.02 362.7 275.24 346.81 265.94 317.43 277.81 308.43 268.34 288.35 210.78 290.15 197.59 277.86 197.59 278 168.93 268.67 130.26 302 131.59 328.67 148.26 329.33 148.93 344 151.59 359.33 180.93 372.67 171.59 390.67 173.46 405.1 199.99 416.96 219.9 407.08 230.26 407.67 241.06 410.37 257.55 398.37 270.14 398.97 281.83 416.96 301.36 416.76"/><polygon class="cls-15" points="333.26 429.67 330.6 412.67 330.77 412.41 309.93 416.33 301.36 416.43 301.36 416.76 281.83 416.96 270.14 398.97 257.55 398.37 241.06 410.37 230.26 407.67 219.9 407.08 199.99 416.96 173.46 405.1 172.26 395.82 174.26 411.33 189.59 431.33 169.59 456.67 164.26 486.67 165.57 479.29 183.2 502.39 211.08 485 235.36 496.39 253.95 506.29 296.22 501.49 296.5 502.3 309.6 488.33 300.26 467 325.26 432 333.61 429.79 337.64 431.2 337.64 431.2 333.26 429.67"/><path class="cls-16" d="M522.26,398l-14.66,6.67,6.66-99.34-12-17.33-8-47.33L495,245l-14.12,21.76-14.68,1.5-51.87,3.3s-4-2-9.66-4.88l-10.74,38L369.6,299l-37.67,30,2,7.33L327.26,368l15.6,15.38L330.6,412.67l2.66,17,19,6.66L372.6,462l66.33,7,40.67-18.67L515.22,458l9.71-33.37Z"/><path class="cls-17" d="M494.26,240.67,459.6,183.33,394.26,84.67l-8.83-4.37L378.93,92l-21.39,1.79L348.26,108l-46,7.33L250.91,111l7.24,19.42,37.17,32.68s.9,33.27,1.8,33.27,26.38,9.89,26.38,9.89l-8.09,48,13.19,5.09s36.57-11.39,38.37-11.09,47.36,23.39,47.36,23.39l51.87-3.3,14.68-1.5L495,245Z"/><path class="cls-18" d="M323.5,206.21s-25.48-9.89-26.38-9.89-1.8-33.27-1.8-33.27l-37.17-32.68L250.91,111l-3.31-.28L215.45,128l-.52,6.71L193.6,149.33,200.93,166l-14.67,8.67-24.66-12-19.34,20L167.6,224l28,4.67-11.34,24,13.34,10.66v14.53l13.18,12.29,57.56-1.8.53.92L296.26,268l24.92-11.59-5.77-2.23Z"/><polygon class="cls-13" points="324.1 558.15 305.51 528.17 296.22 501.49 253.95 506.29 235.36 496.39 211.08 485 183.2 502.39 165.57 479.29 164.26 486.67 148.26 511.33 150.93 522 123.72 527.57 126.93 546 112.26 558 103.59 601.33 122.93 605.33 94.93 642.67 105.59 661.33 134.26 648 134.26 636.67 158.93 629.33 246.93 643.33 250.93 630.67 274.93 620 282.93 626.67 293.6 620.67 291.6 599.33 330.21 584.92 324.1 558.15"/><polygon class="cls-19" points="189.13 512.83 221.28 512.83 234.63 526.18 205.51 543.17 183.06 526.18 189.13 512.83"/><polygon class="cls-20" points="386.1 430 391.6 445.5 386.77 463.5 404.18 465.33 430.6 431.5 415.6 412.5 386.1 430"/><polygon class="cls-21" points="295.68 383.21 295.32 381.88 292.02 362.7 275.24 346.81 274.91 345.77 258.6 370 277.6 386.5 295.68 383.21"/><polygon class="cls-22" points="182.09 203 176.59 185 183.14 173.15 161.59 162.67 142.26 182.67 167.59 224 194.84 228.54 210.09 220 206.09 196 182.09 203"/><polygon class="cls-13" points="255.6 204.5 228.09 189 207.43 204.03 209.62 217.18 228.59 223.5 256.6 216.5 255.6 204.5"/><polygon class="cls-23" points="438.29 550.55 486.93 522.67 493.83 512.45 484.1 495.5 444.6 516.5 441.1 528 402.1 539.5 413.6 550.5 435.1 543 438.29 550.55"/><path class="cls-15" d="M479.6,450.33l-15.85,7.28c-1.92,6.46-3.65,12.89-3.65,12.89l22,15.5,1.23,9.91.77-.41,9.73,17L492.11,515h0l11.49-17,11.62-40Z"/><polyline class="cls-24" points="514.9 458.04 479.28 450.33 438.61 469 372.28 462 351.94 436.33 333.29 429.79 324.94 432 299.94 467 309.28 488.33 296.18 502.3 305.19 528.17 323.78 558.15 329.9 584.92"/><polyline class="cls-24" points="173.14 405.1 199.67 416.96 219.58 407.08 229.94 407.67 240.74 410.37 257.23 398.37 269.82 398.97 281.51 416.96 301.04 416.76 301 404.07 295 381.88 291.7 362.7 274.92 346.81 265.63 317.43 277.49 308.43 268.02 288.35 210.47 290.15 197.28 277.86 197.28 278"/><polyline class="cls-24" points="165.25 479.29 182.88 502.39 210.76 485 235.04 496.39 253.63 506.29 295.9 501.49 296.18 502.3 309.28 488.33 299.94 467 324.94 432 333.29 429.79 337.33 431.2 337.33 431.2 332.94 429.67 330.28 412.67 330.45 412.41 309.61 416.33 301.04 416.43 301.04 416.76 281.51 416.96 269.82 398.97 257.23 398.37 240.74 410.37 229.94 407.67 219.58 407.08 199.67 416.96 173.14 405.1"/><path class="cls-24" d="M494.68,245l-14.11,21.76-14.69,1.5L414,271.57l-9.66-4.88-10.75,38L369.28,299l-37.67,30,2,7.33L326.94,368l15.6,15.38-12.26,29.29,2.66,17,19,6.66L372.28,462l66.33,7,40.67-18.67L514.9,458"/><path class="cls-24" d="M250.6,111l7.23,19.42L295,163.05s.9,33.27,1.8,33.27,26.38,9.89,26.38,9.89l-8.09,48,13.19,5.09s36.57-11.39,38.37-11.09S414,271.57,414,271.57l51.86-3.3,14.69-1.5L494.68,245"/><polyline class="cls-24" points="193.28 149.33 200.61 166 185.94 174.67"/><path class="cls-24" d="M195.28,228.67l-11.34,24,13.34,10.66v14.53l13.19,12.29,57.55-1.8.53.92L295.94,268l24.92-11.59-5.77-2.23,8.09-48s-25.48-9.89-26.38-9.89-1.8-33.27-1.8-33.27l-37.17-32.68L250.6,111"/><polyline class="cls-24" points="329.9 584.92 323.78 558.15 305.19 528.17 295.9 501.49 253.63 506.29 235.04 496.39 210.76 485 182.88 502.39 165.25 479.29"/><polygon class="cls-24" points="188.81 512.83 220.96 512.83 234.31 526.18 205.19 543.17 182.74 526.18 188.81 512.83"/><polygon class="cls-24" points="385.78 430 391.28 445.5 386.45 463.5 403.86 465.33 430.28 431.5 415.28 412.5 385.78 430"/><polygon class="cls-24" points="295.36 383.21 295 381.88 291.7 362.7 274.92 346.81 274.59 345.77 258.28 370 277.28 386.5 295.36 383.21"/><polyline class="cls-24" points="194.52 228.54 209.78 220 205.78 196 181.78 203 176.28 185 182.82 173.15"/><polygon class="cls-24" points="255.28 204.5 227.78 189 207.12 204.03 209.31 217.18 228.28 223.5 256.28 216.5 255.28 204.5"/><polyline class="cls-24" points="493.51 512.45 483.78 495.5 444.28 516.5 440.78 528 401.78 539.5 413.28 550.5 434.78 543 437.97 550.55"/><path class="cls-24" d="M514.9,458l-35.62-7.71-15.85,7.28c-1.92,6.46-3.65,12.89-3.65,12.89l22,15.5,1.24,9.91.76-.41,9.73,17L491.79,515h0"/></svg>